# xmcd
# Copyright (C) 1995-1998 Ti Kan
#
# Track frame offsets:
#       150
#       26122
#       43370
#       60605
#       75481
#       89222
#       110965
#       126050
#       145395
#       163932
#       178909
#       208768
#       226567
#       243374
#       260663
#       279962
#       293980
#       314971
#
# Disc length: 4370 seconds
#
# Revision: 0
# Processed by: cddbd v1.5.2PL0 Copyright (c) Steve Scherf et al.
# Submitted via: CD-Import v1.0
#
DISCID=20111012
DTITLE=On Y Danse - Sendung
DYEAR=1900
DGENRE=
TTITLE0=Breakfast - Lele
TTITLE1=Audicity Of Huge - Simian Mobile Disco
TTITLE2=Shoes - Tiga
TTITLE3=8th Wonder - The Gossip
TTITLE4=Creating Kryptonite - Santigold
TTITLE5=The Reeling - Passion Pit
TTITLE6=New In Town - Little Boots
TTITLE7=Discomonster - Le Le
TTITLE8=I Will Come Back - 80kidz
TTITLE9=Gotta Boyfriend - Frankmusik
TTITLE10=Money Can't Dance - Fisherspooner
TTITLE11=Nightmare - Data
TTITLE12=Rapture - Data
TTITLE13=One More Chance - Bloc Party
TTITLE14=Always More - Autokratz
TTITLE15=You're Out - Dead Disco
TTITLE16=Feeling For You - Cassius
TTITLE17=Boylife - Lo-Fi-Fnk
EXTD=
EXTT0=
EXTT1=
EXTT2=
EXTT3=
EXTT4=
EXTT5=
EXTT6=
EXTT7=
EXTT8=
EXTT9=
EXTT10=
EXTT11=
EXTT12=
EXTT13=
EXTT14=
EXTT15=
EXTT16=
EXTT17=
PLAYORDER=
